<?xml version="1.0" standalone="no"?>
<!DOCTYPE svg PUBLIC "-//W3C//DTD SVG 20010904//EN"
 "http://www.w3.org/TR/2001/REC-SVG-20010904/DTD/svg10.dtd">
<svg version="1.0" xmlns="http://www.w3.org/2000/svg"
 width="1024.000000pt" height="1024.000000pt" viewBox="0 0 1024.000000 1024.000000"
 preserveAspectRatio="xMidYMid meet">
<metadata>
Created by potrace 1.11, written by Peter Selinger 2001-2013
</metadata>
<g transform="translate(0.000000,1024.000000) scale(0.100000,-0.100000)"
fill="#000000" stroke="none">
<path d="M4370 10228 c-25 -4 -61 -10 -80 -12 -19 -2 -73 -9 -120 -16 -85 -11
-95 -13 -180 -25 -82 -12 -95 -14 -140 -20 -50 -6 -117 -16 -141 -20 -8 -2
-40 -6 -70 -9 -30 -3 -63 -8 -75 -10 -12 -2 -45 -7 -75 -11 -30 -3 -61 -8 -69
-10 -8 -2 -40 -6 -71 -10 -31 -3 -65 -7 -75 -9 -11 -2 -41 -7 -69 -10 -125
-17 -394 -55 -435 -61 -14 -3 -50 -8 -80 -11 -30 -4 -64 -8 -75 -10 -11 -1
-26 -3 -34 -3 -32 -2 8 -15 260 -81 145 -38 280 -74 299 -80 42 -12 379 -101
400 -105 14 -3 90 -23 490 -129 272 -72 421 -111 595 -156 88 -23 219 -58 290
-77 72 -19 137 -36 145 -37 31 -7 106 -28 135 -37 38 -12 448 -119 477 -124
11 -3 35 -9 52 -15 27 -8 160 -44 209 -55 9 -2 147 -38 305 -80 158 -43 294
-79 302 -80 8 -2 42 -11 75 -20 33 -9 137 -36 230 -60 94 -25 238 -63 320 -85
83 -23 164 -43 182 -46 28 -5 71 17 320 162 158 92 302 175 318 184 17 9 64
37 105 62 41 24 82 47 90 51 8 4 29 15 45 26 79 48 309 181 314 181 3 0 17 9
31 19 l25 19 -25 6 c-14 3 -47 10 -75 16 -27 6 -61 13 -75 15 -14 3 -36 7 -50
10 -32 7 -67 14 -104 20 -16 3 -153 31 -305 61 -152 31 -287 58 -301 60 -14 3
-227 45 -475 95 -247 49 -459 91 -470 93 -11 3 -112 23 -225 45 -113 23 -218
44 -235 47 -16 3 -48 9 -70 14 -22 5 -53 11 -70 14 -36 7 -63 12 -130 26 -27
6 -61 12 -75 15 -14 3 -95 19 -180 36 -85 17 -164 33 -175 34 -11 2 -54 11
-95 20 -41 9 -91 18 -110 21 -19 3 -64 12 -100 20 -36 9 -76 17 -90 19 -22 3
-520 102 -605 120 -51 11 -138 13 -185 3z"/>
<path d="M2495 9803 c12 -436 18 -696 17 -750 l0 -63 577 -190 c317 -104 718
-236 891 -293 l315 -103 1 -55 c1 -30 4 -130 8 -224 3 -93 9 -242 12 -329 l6
-159 134 -181 c73 -100 140 -190 148 -201 8 -11 43 -58 78 -105 66 -89 506
-684 665 -900 51 -69 96 -129 100 -135 5 -5 64 -85 132 -177 68 -93 126 -168
130 -168 3 0 7 177 9 393 4 625 9 937 13 941 4 4 56 13 124 22 33 4 166 23
205 29 14 3 72 11 130 20 58 8 121 18 140 20 19 3 80 12 135 20 55 9 116 18
135 20 19 3 82 12 140 20 58 9 114 17 125 19 11 2 43 7 70 10 28 4 61 8 75 11
14 3 39 7 55 9 73 11 122 18 145 21 76 12 232 35 275 41 28 3 68 9 90 13 l40
8 -44 12 c-23 7 -41 14 -40 15 3 3 739 444 841 505 239 141 325 195 325 205 0
21 15 241 18 276 1 19 6 78 9 130 4 52 9 120 11 150 3 30 7 87 9 125 3 39 8
108 12 155 9 122 10 142 19 278 7 117 7 122 -11 115 -21 -9 -191 -95 -394
-200 -231 -120 -791 -405 -868 -442 l-73 -36 6 -330 c4 -181 8 -400 10 -485 4
-185 7 -401 6 -416 -1 -6 -14 -9 -31 -6 -26 4 -30 9 -31 36 -1 17 -3 51 -4 76
-3 40 -6 130 -20 480 -11 295 -19 479 -20 505 -1 17 -3 44 -4 60 -1 29 -4 31
-88 54 -304 82 -458 123 -528 142 -44 12 -91 25 -105 29 -31 10 -293 80 -319
85 -10 2 -51 13 -92 24 -41 12 -90 26 -109 31 -19 6 -143 39 -275 75 -132 35
-325 87 -430 115 -104 29 -215 58 -245 66 -30 8 -62 16 -70 18 -34 9 -130 35
-205 56 -44 12 -206 55 -360 96 -154 41 -336 90 -405 109 -69 19 -244 67 -390
106 -146 39 -373 100 -505 135 -275 75 -414 112 -570 154 -60 16 -120 32 -132
36 -21 6 -21 5 -18 -123z m2975 -1786 c261 -86 529 -174 595 -196 122 -40 145
-53 45 -25 -47 13 -79 22 -180 48 -26 7 -212 58 -285 78 -38 11 -113 31 -165
44 -302 80 -428 117 -448 132 -30 22 -72 88 -52 80 8 -3 229 -75 490 -161z"/>
<path d="M8015 7403 c-44 -7 -112 -18 -152 -23 -39 -6 -82 -13 -94 -15 -13 -3
-41 -7 -64 -10 -22 -3 -78 -12 -125 -20 -47 -8 -105 -17 -130 -20 -25 -3 -56
-8 -70 -10 -14 -3 -38 -7 -55 -9 -51 -7 -119 -18 -140 -22 -10 -2 -35 -6 -55
-9 -20 -3 -47 -7 -60 -10 -13 -2 -58 -9 -100 -15 -42 -6 -86 -12 -97 -14 -12
-3 -43 -8 -70 -12 -26 -3 -57 -8 -68 -10 -11 -3 -38 -7 -60 -10 -22 -2 -53 -7
-70 -10 -16 -3 -43 -7 -60 -10 -16 -2 -41 -6 -55 -9 -14 -2 -45 -7 -70 -10
-25 -3 -101 -15 -170 -26 -69 -11 -143 -22 -165 -25 -49 -8 -70 -11 -143 -24
-31 -5 -82 -12 -112 -16 -30 -3 -59 -10 -64 -15 -6 -5 -11 -55 -12 -111 -1
-57 -5 -292 -9 -523 -3 -231 -8 -493 -10 -583 -3 -147 -1 -162 14 -158 16 5
54 10 141 21 25 3 52 8 60 10 8 2 38 6 65 10 28 3 61 7 75 10 14 2 41 6 60 9
76 10 136 19 155 22 11 3 43 7 70 9 28 3 75 10 105 15 30 5 75 12 100 15 59 8
99 14 130 20 14 3 45 7 70 10 71 8 121 15 180 25 30 5 75 12 100 15 25 3 56 8
70 10 14 2 45 7 70 10 25 3 56 8 70 10 14 3 45 7 70 10 25 3 56 8 70 10 14 2
45 7 70 10 25 3 56 8 70 10 14 2 45 7 70 10 25 3 72 10 105 15 33 5 83 12 110
15 53 7 84 12 125 19 14 3 48 8 75 12 28 3 73 9 100 13 l50 6 -1 90 c-1 86
-14 502 -19 650 -2 39 -6 167 -10 285 -7 192 -10 275 -14 347 -1 26 -3 26
-126 6z"/>
<path d="M4639 7025 c0 -17 -2 -38 -4 -48 -2 -10 -6 -55 -10 -99 -4 -45 -8
-89 -10 -99 -2 -10 -6 -51 -9 -91 -4 -40 -8 -82 -10 -93 -2 -11 -7 -56 -10
-100 -4 -44 -9 -93 -12 -110 -2 -16 -7 -57 -10 -90 -7 -80 -16 -176 -29 -295
-2 -19 -7 -66 -10 -105 -4 -38 -8 -81 -10 -95 -2 -14 -6 -59 -10 -100 -3 -41
-9 -83 -11 -93 -6 -20 -89 -20 846 -1 173 3 316 7 318 9 4 3 -42 69 -223 323
-132 186 -655 920 -745 1047 -47 66 -50 68 -51 40z"/>
<path d="M7057 5774 c-1 -1 -27 -5 -57 -9 -30 -3 -100 -13 -155 -21 -55 -7
-120 -16 -145 -19 -54 -7 -265 -35 -300 -40 -14 -2 -47 -7 -75 -10 -54 -7 -78
-10 -140 -19 -22 -3 -58 -8 -80 -11 -41 -4 -96 -12 -150 -20 -16 -2 -52 -7
-80 -11 -27 -3 -52 -8 -54 -10 -4 -4 525 2 999 11 124 2 243 4 265 5 l40 0 1
80 1 80 -34 -2 c-19 -1 -35 -3 -36 -4z"/>
<path d="M4335 5498 c-22 -29 -67 -87 -100 -128 -97 -123 -98 -123 -504 -640
-214 -272 -388 -496 -387 -497 3 -3 128 -10 321 -18 77 -3 185 -8 240 -10 141
-6 391 -16 450 -18 l50 -2 -2 185 c0 102 -4 374 -8 605 -4 231 -7 455 -8 498
0 42 -4 77 -7 77 -3 0 -24 -24 -45 -52z"/>
<path d="M6997 5533 c-2 -1 -381 -7 -1257 -18 -240 -3 -1174 -17 -1231 -18
l-27 -1 3 -215 c9 -618 20 -1122 23 -1146 1 -7 134 -12 400 -14 1975 -13 2163
-14 2173 -4 4 4 11 159 14 343 9 446 9 450 26 461 24 15 29 10 30 -33 1 -24 3
-63 4 -88 1 -25 3 -56 4 -68 1 -23 2 -23 54 14 28 22 57 42 62 46 18 14 82 63
109 82 67 48 64 43 26 59 -19 8 -68 25 -107 38 -40 13 -73 25 -73 28 0 4 75
62 165 131 91 69 165 128 165 132 0 4 -28 16 -62 27 -216 66 -364 115 -373
121 -5 5 -9 33 -9 63 l2 55 -60 4 c-33 2 -60 2 -61 1z"/>
<path d="M7385 4702 l-220 -147 -2 -82 c-1 -44 -4 -166 -5 -269 l-3 -187 -80
2 c-44 2 -167 4 -274 5 l-194 1 -114 -265 c-63 -146 -118 -275 -123 -287 -5
-12 -96 -224 -201 -470 -106 -246 -198 -463 -206 -481 -11 -25 -11 -32 -1 -26
11 7 375 307 853 704 110 91 317 262 459 380 143 118 272 226 287 240 l28 25
6 270 c3 149 8 375 11 503 3 127 4 232 2 232 -2 -1 -102 -67 -223 -148z"/>
<path d="M3334 4029 c3 -52 8 -107 10 -124 3 -16 7 -64 11 -105 3 -41 8 -86
10 -100 2 -14 6 -56 10 -95 3 -38 8 -88 11 -110 2 -22 6 -60 8 -85 9 -109 17
-187 21 -215 2 -16 7 -64 10 -105 3 -41 8 -91 10 -110 2 -19 7 -66 10 -105 4
-38 8 -85 10 -103 2 -18 5 -35 6 -37 2 -2 40 -6 84 -9 203 -16 298 -23 410
-31 44 -3 103 -8 130 -10 28 -2 86 -7 130 -10 90 -6 174 -13 255 -20 30 -3 89
-7 130 -10 74 -5 161 -12 270 -20 30 -2 91 -7 135 -10 44 -3 105 -8 135 -10
30 -3 87 -7 125 -10 114 -8 207 -16 255 -20 25 -2 92 -7 150 -10 58 -3 118 -8
133 -11 l29 -5 -6 73 c-4 40 -9 93 -11 118 -6 68 -18 217 -30 375 -2 33 -7 85
-10 115 -7 77 -14 164 -20 240 -11 144 -16 207 -20 250 -7 72 -18 213 -17 232
0 10 -3 20 -7 22 -9 6 -92 13 -251 21 -121 7 -218 12 -360 20 -47 2 -134 7
-195 10 -60 3 -137 8 -170 10 -33 3 -116 7 -185 10 -69 3 -143 8 -165 10 -22
2 -101 7 -175 10 -74 4 -160 8 -190 10 -30 2 -104 7 -165 10 -60 3 -137 8
-170 10 -33 2 -123 7 -200 10 -77 4 -144 9 -149 13 -5 3 -6 -34 -2 -89z"/>
<path d="M5825 4010 c-1 -3 -1 -23 0 -45 2 -22 6 -96 10 -165 3 -69 8 -152 10
-185 2 -33 6 -107 9 -165 3 -58 8 -145 11 -195 3 -49 7 -124 10 -165 8 -145
18 -305 20 -345 2 -22 4 -67 5 -100 l2 -60 26 55 c31 64 64 137 88 195 9 22
24 58 34 80 10 22 98 222 195 445 97 223 185 423 195 445 50 113 80 184 80
192 0 5 -114 10 -252 11 -139 2 -295 4 -346 5 -52 1 -95 0 -97 -3z"/>
<path d="M7384 3594 c-87 -70 -175 -139 -194 -155 -45 -37 -357 -285 -589
-469 -101 -80 -256 -203 -345 -275 -89 -71 -177 -141 -195 -155 -18 -14 -38
-30 -44 -35 -7 -6 -68 -55 -137 -109 -69 -55 -144 -115 -168 -134 -45 -35 -51
-55 -10 -29 67 43 66 24 -2 -34 -41 -35 -80 -68 -86 -74 -15 -14 -112 -97
-239 -206 -60 -51 -112 -96 -115 -99 -5 -6 -191 -166 -244 -211 -16 -13 -34
-29 -40 -34 -6 -6 -92 -80 -191 -165 -99 -85 -182 -157 -185 -160 -3 -3 -21
-19 -41 -36 -35 -30 -39 -31 -86 -22 -44 9 -49 13 -50 36 -1 30 -10 239 -18
427 -3 66 -8 170 -10 230 -5 124 -15 367 -20 465 -1 36 -3 90 -4 121 l-1 56
-52 11 c-29 6 -192 41 -363 77 -170 37 -317 68 -325 70 -8 2 -72 15 -141 29
-70 15 -139 29 -155 32 -16 3 -42 9 -59 14 -16 5 -43 11 -60 14 -54 8 -136 26
-143 30 -4 2 -25 7 -47 10 -22 4 -47 8 -55 11 -18 5 -59 14 -120 25 -25 5 -85
18 -135 29 -49 11 -106 23 -125 26 -19 3 -48 10 -65 15 -41 13 -169 34 -175
29 -3 -2 -4 -6 -4 -9 1 -3 5 -59 9 -125 3 -66 8 -142 10 -170 2 -27 7 -93 10
-145 3 -52 7 -115 10 -140 2 -25 7 -88 11 -142 6 -101 8 -124 19 -308 4 -63 9
-118 12 -122 2 -5 -1 -8 -6 -8 -6 0 -11 15 -12 33 0 17 -2 46 -3 62 -5 52 -16
197 -22 285 -3 47 -7 105 -9 130 -2 25 -7 86 -10 135 -4 50 -8 91 -9 93 -3 2
-482 -190 -541 -217 -92 -42 -256 -102 -264 -96 -6 3 -11 2 -11 -4 0 -6 -12
-17 -27 -25 l-28 -14 28 -13 c16 -7 27 -20 28 -33 0 -12 2 -32 4 -46 1 -14 6
-72 10 -130 3 -58 8 -123 10 -145 2 -22 7 -83 10 -135 3 -52 8 -117 10 -145 4
-48 9 -111 20 -282 3 -43 8 -100 10 -128 6 -69 15 -190 19 -250 2 -28 10 -53
17 -58 631 -379 1097 -659 1109 -664 8 -4 61 -35 117 -70 57 -35 113 -63 125
-63 17 0 357 130 443 170 11 5 200 82 420 171 220 88 540 217 710 286 171 69
351 141 400 161 50 19 94 39 100 43 5 5 15 9 23 9 7 0 32 9 55 19 23 11 134
56 247 101 113 44 219 87 235 95 17 7 98 40 180 73 83 33 245 98 360 145 116
47 302 122 415 167 113 45 219 88 235 95 17 7 111 46 210 85 99 40 194 78 210
85 17 8 215 88 440 179 226 90 464 187 530 213 l120 49 -1 55 c-1 57 -13 403
-19 554 -2 50 -7 171 -10 270 -8 199 -12 303 -14 323 -1 8 -9 10 -26 6 -17 -4
-40 3 -77 24 -29 16 -91 50 -138 74 -151 80 -244 130 -285 153 -107 59 -213
115 -217 115 -3 0 -76 -57 -164 -126z m-4957 -1836 c4 -76 9 -98 22 -103 17
-4 231 -54 266 -61 49 -10 337 -75 348 -79 6 -2 23 -6 37 -9 14 -2 88 -19 165
-36 77 -17 149 -33 160 -36 11 -2 90 -20 175 -39 85 -19 166 -38 179 -41 13
-3 21 -7 19 -9 -2 -2 -53 7 -114 20 -60 13 -140 31 -179 40 -38 8 -108 24
-154 34 l-83 19 -162 -54 c-88 -30 -167 -54 -173 -54 -20 0 -513 311 -514 323
0 7 -2 31 -5 55 -2 23 0 42 4 42 5 0 9 -6 9 -12z m1433 -428 c0 -10 -38 -1
-45 10 -2 4 7 5 20 2 14 -2 25 -8 25 -12z m37 -6 c-3 -3 -12 -4 -19 -1 -8 3
-5 6 6 6 11 1 17 -2 13 -5z m46 -11 c-7 -2 -19 -2 -25 0 -7 3 -2 5 12 5 14 0
19 -2 13 -5z m67 -13 c11 -8 7 -9 -15 -4 -37 8 -45 14 -19 14 10 0 26 -5 34
-10z m67 -16 c-3 -3 -12 -4 -19 -1 -8 3 -5 6 6 6 11 1 17 -2 13 -5z m100 -20
c-3 -3 -12 -4 -19 -1 -8 3 -5 6 6 6 11 1 17 -2 13 -5z"/>
<path d="M2975 3390 c-176 -121 -373 -255 -438 -298 -65 -44 -115 -82 -110
-85 6 -4 298 -62 403 -81 14 -2 52 -9 85 -15 33 -6 74 -13 90 -16 17 -3 41 -8
55 -10 14 -3 36 -8 50 -10 14 -3 36 -7 50 -10 52 -11 182 -35 187 -35 2 0 2
33 -2 73 -6 89 -13 185 -21 302 -3 50 -7 110 -9 135 -1 25 -6 95 -10 155 -4
61 -8 111 -9 112 0 0 -145 -97 -321 -217z"/>
<path d="M4516 1907 c2 -347 8 -635 12 -639 4 -3 41 23 82 59 94 82 103 90
225 193 55 47 102 87 105 90 3 3 104 90 225 194 121 103 231 198 245 209 14
12 90 78 170 147 80 68 147 127 150 130 3 3 30 25 60 50 83 67 85 70 63 71
-10 1 -27 3 -38 4 -11 1 -58 6 -105 9 -47 4 -96 9 -110 11 -14 2 -59 6 -100
10 -41 3 -93 8 -115 10 -22 2 -71 7 -110 10 -38 3 -86 8 -105 10 -19 3 -66 7
-105 10 -38 3 -86 8 -105 10 -19 2 -64 7 -100 10 -87 7 -266 25 -312 30 l-37
4 5 -632z"/>
</g>
</svg>
